<?xml version="1.0" encoding="UTF-8"?>
<!DOCTYPE svg PUBLIC "-//W3C//DTD SVG 1.1//EN" "http://www.w3.org/Graphics/SVG/1.1/DTD/svg11.dtd">
<svg xmlns="http://www.w3.org/2000/svg" version="1.1" width="256px" height="256px" style="shape-rendering:geometricPrecision; text-rendering:geometricPrecision; image-rendering:optimizeQuality; fill-rule:evenodd; clip-rule:evenodd" xmlns:xlink="http://www.w3.org/1999/xlink">
<g><path style="opacity:0.873" fill="#000000" d="M 50.5,20.5 C 54.8333,20.5 59.1667,20.5 63.5,20.5C 63.5,43.8333 63.5,67.1667 63.5,90.5C 58.5,90.5 53.5,90.5 48.5,90.5C 48.6666,74.8298 48.4999,59.1631 48,43.5C 43.2007,47.6499 37.7007,50.3165 31.5,51.5C 31.3342,46.8215 31.5008,42.1548 32,37.5C 39.1933,34.2997 45.1933,29.633 50,23.5C 50.4828,22.552 50.6495,21.552 50.5,20.5 Z"/></g>
<g><path style="opacity:0.85" fill="#000000" d="M 165.5,20.5 C 171.509,20.3338 177.509,20.5005 183.5,21C 187.667,27.1667 191.833,33.3333 196,39.5C 200.031,33.634 203.864,27.634 207.5,21.5C 213.833,20.1667 220.167,20.1667 226.5,21.5C 219.375,32.2483 212.375,43.0816 205.5,54C 213.291,65.7482 220.958,77.5815 228.5,89.5C 222.193,90.6639 215.859,90.8306 209.5,90C 205.387,82.7322 200.72,75.8988 195.5,69.5C 191.029,76.4705 186.362,83.3038 181.5,90C 175.141,90.8306 168.807,90.6639 162.5,89.5C 170.376,77.5802 178.376,65.7469 186.5,54C 178.415,43.436 171.415,32.2694 165.5,20.5 Z"/></g>
<g><path style="opacity:0.833" fill="#000000" d="M 113.5,39.5 C 118.5,39.5 123.5,39.5 128.5,39.5C 128.5,44.1667 128.5,48.8333 128.5,53.5C 123.5,53.5 118.5,53.5 113.5,53.5C 113.5,48.8333 113.5,44.1667 113.5,39.5 Z"/></g>
<g><path style="opacity:0.833" fill="#000000" d="M 113.5,76.5 C 118.5,76.5 123.5,76.5 128.5,76.5C 128.5,81.1667 128.5,85.8333 128.5,90.5C 123.5,90.5 118.5,90.5 113.5,90.5C 113.5,85.8333 113.5,81.1667 113.5,76.5 Z"/></g>
<g><path style="opacity:0.878" fill="#000000" d="M 45.5,102.5 C 73.7209,106.453 101.888,110.787 130,115.5C 157.862,110.123 185.696,106.456 213.5,104.5C 185.711,119.812 157.544,134.479 129,148.5C 101.754,133.459 74.2539,118.792 46.5,104.5C 45.7025,104.043 45.3691,103.376 45.5,102.5 Z"/></g>
<g><path style="opacity:0.869" fill="#000000" d="M 51.5,147.5 C 55.8333,147.5 60.1667,147.5 64.5,147.5C 64.5,170.833 64.5,194.167 64.5,217.5C 59.5,217.5 54.5,217.5 49.5,217.5C 49.6666,201.497 49.4999,185.497 49,169.5C 44.5547,174.472 39.0547,177.472 32.5,178.5C 32.5,173.5 32.5,168.5 32.5,163.5C 41.2713,161.062 47.6046,155.729 51.5,147.5 Z"/></g>
<g><path style="opacity:0.886" fill="#000000" d="M 170.5,147.5 C 175.875,147.172 181.208,147.505 186.5,148.5C 194.801,162.632 203.301,176.632 212,190.5C 212.5,176.171 212.667,161.837 212.5,147.5C 217.167,147.5 221.833,147.5 226.5,147.5C 226.5,170.833 226.5,194.167 226.5,217.5C 221.156,217.666 215.823,217.499 210.5,217C 202.459,203.749 194.292,190.583 186,177.5C 185.5,190.829 185.333,204.163 185.5,217.5C 180.5,217.5 175.5,217.5 170.5,217.5C 170.5,194.167 170.5,170.833 170.5,147.5 Z"/></g>
<g><path style="opacity:0.782" fill="#000000" d="M 113.5,166.5 C 118.833,166.5 124.167,166.5 129.5,166.5C 129.5,171.167 129.5,175.833 129.5,180.5C 124.167,180.5 118.833,180.5 113.5,180.5C 113.5,175.833 113.5,171.167 113.5,166.5 Z"/></g>
<g><path style="opacity:0.782" fill="#000000" d="M 113.5,203.5 C 118.833,203.5 124.167,203.5 129.5,203.5C 129.5,208.167 129.5,212.833 129.5,217.5C 124.167,217.5 118.833,217.5 113.5,217.5C 113.5,212.833 113.5,208.167 113.5,203.5 Z"/></g>
</svg>
